<?xml version="1.0" encoding="UTF-8"?>
<!-- Generated by Pixelmator Pro 3.6.18 -->
<svg width="512" height="512" viewBox="0 0 512 512" xmlns="http://www.w3.org/2000/svg">
    <path id="Path" fill="#ffffff" stroke="none" d="M -42.733521 0 L 912.497314 0 L 912.497314 955.230835 L -42.733521 955.230835 Z"/>
    <path id="path1" fill="#000000" stroke="none" d="M 178.170944 492.999969 L 178.170944 418.159698 L 270.559723 418.159698 C 292.13269 418.159698 309.093933 411.423553 321.460815 397.93399 C 333.827637 384.444458 340.011108 368.502258 340.011108 350.055542 C 340.011108 337.481445 337.31665 326.116333 331.927734 316.012146 C 326.538849 305.907898 318.438171 297.703613 307.660339 291.399292 C 296.865265 285.112244 284.066559 281.951416 269.229767 281.951416 L 146.511063 281.951416 L 146.511063 207.78476 L 259.108276 207.78476 C 278.435852 207.78476 293.72171 203.069458 304.965881 193.621582 C 316.19281 184.173706 321.823517 170.027832 321.823517 151.149353 C 321.823517 132.270874 316.089172 117.434082 304.637726 108.003479 C 293.169006 98.555603 278.228577 93.840302 259.799164 93.840302 L 146.511063 93.840302 L 146.511063 19 L 271.250641 19 C 302.271454 19 328.335114 24.734344 349.458954 36.185822 C 370.582855 47.654541 386.645935 62.715851 397.665588 81.369812 C 408.667938 100.023712 414.177765 120.370331 414.177765 142.392334 C 414.177765 169.37146 405.97348 192.619781 389.564941 212.171875 C 373.156403 231.723969 348.992645 246.457153 317.090942 256.336792 L 321.132629 225.989594 C 356.626923 235.886566 384.055115 252.174194 403.38266 274.869843 C 422.710205 297.582733 432.382629 324.890015 432.382629 356.791718 C 432.382629 381.974487 426.078308 404.773773 413.50415 425.223999 C 400.912781 445.691528 382.828827 462.082825 359.235016 474.449677 C 335.641235 486.816559 307.19397 492.999969 273.945068 492.999969 L 178.188217 492.999969 Z M 79.615982 400.317566 L 79.615982 19 L 167.859467 19 L 167.859467 400.317566 C 164.52594 397.174011 148.566452 382.786316 123.72908 382.786316 C 119.134689 382.786316 97.66539 383.269928 79.598701 400.317566 Z M 167.859467 444.430664 C 167.859467 468.801697 148.100113 488.561005 123.72908 488.561005 C 99.358055 488.561005 79.615982 468.801697 79.615982 444.430664 C 79.615982 420.059631 99.375336 400.300262 123.746353 400.300262 C 148.117371 400.300262 167.876724 420.059631 167.876724 444.430664 Z"/>
</svg>
