<svg fill="none" viewBox="0 0 24 24" xmlns="http://www.w3.org/2000/svg"><g stroke="#000" stroke-linecap="round" stroke-linejoin="round" stroke-width="1.5"><path d="m.75 12c0 2.9837 1.18526 5.8452 3.29505 7.955 2.10978 2.1097 4.97126 3.295 7.95495 3.295 2.9837 0 5.8452-1.1853 7.955-3.295 2.1097-2.1098 3.295-4.9713 3.295-7.955 0-2.98369-1.1853-5.84517-3.295-7.95495-2.1098-2.10979-4.9713-3.29505-7.955-3.29505-2.98369 0-5.84517 1.18526-7.95495 3.29505-2.10979 2.10978-3.29505 4.97126-3.29505 7.95495z"/><path d="m6.75 11.125c0 1.1603.46094 2.2731 1.28141 3.0936s1.93327 1.2814 3.09359 1.2814c1.1603 0 2.2731-.4609 3.0936-1.2814s1.2814-1.9333 1.2814-3.0936c0-1.16032-.4609-2.27312-1.2814-3.09359s-1.9333-1.28141-3.0936-1.28141c-1.16032 0-2.27312.46094-3.09359 1.28141s-1.28141 1.93327-1.28141 3.09359z"/><path d="m14.219 14.218 3.031 3.032"/></g></svg>